<?xml version="1.0" standalone="no"?>
<!DOCTYPE svg PUBLIC "-//W3C//DTD SVG 20010904//EN"
 "http://www.w3.org/TR/2001/REC-SVG-20010904/DTD/svg10.dtd">
<svg version="1.0" xmlns="http://www.w3.org/2000/svg"
 width="650.000000pt" height="650.000000pt" viewBox="0 0 650.000000 650.000000"
 preserveAspectRatio="xMidYMid meet">
<metadata>
Created by potrace 1.14, written by Peter Selinger 2001-2017
</metadata>
<g transform="translate(0.000000,650.000000) scale(0.100000,-0.100000)"
fill="#000000" stroke="none">
<path d="M0 3815 c0 -2423 2 -2685 15 -2673 40 33 66 65 72 88 11 42 61 68 91
46 9 -7 16 -5 22 4 6 10 4 17 -5 23 -12 6 -12 12 -2 27 6 11 17 20 24 20 19 0
26 19 13 35 -10 11 -7 15 14 21 16 4 28 15 32 30 5 18 13 24 34 24 15 0 33 -6
40 -14 6 -8 23 -16 38 -18 l27 -3 -23 -21 c-20 -19 -21 -22 -6 -28 15 -6 43
17 44 35 0 3 10 5 22 5 15 -1 24 6 26 18 5 23 55 76 72 76 7 0 10 -7 6 -15 -3
-9 -1 -24 6 -34 9 -15 15 -16 34 -7 13 6 24 17 24 25 0 9 8 11 25 7 27 -7 32
3 13 22 -9 9 -6 12 15 12 19 0 30 7 37 23 7 19 9 19 9 3 1 -16 7 -18 41 -13
22 3 43 1 46 -5 3 -5 18 -7 32 -3 23 6 24 5 12 -10 -11 -13 -24 -16 -53 -12
-43 6 -67 0 -67 -15 0 -6 16 -8 36 -6 30 3 39 0 52 -20 12 -19 13 -28 4 -43
-11 -17 -9 -19 10 -19 33 -1 61 -25 64 -56 3 -30 51 -97 64 -89 5 3 21 3 35
-1 31 -8 30 -40 0 -37 -20 2 -20 1 -1 -13 11 -8 23 -14 28 -14 4 0 8 -12 8
-28 0 -16 8 -32 20 -40 21 -13 28 -42 10 -42 -23 0 -8 -39 20 -52 30 -13 40
-28 19 -28 -5 0 -8 -4 -5 -9 3 -5 -1 -12 -10 -15 -24 -9 -25 -8 -18 20 5 18 3
25 -4 20 -6 -3 -12 0 -15 6 -3 9 -13 4 -30 -13 -14 -15 -32 -29 -39 -32 -10
-4 -11 -7 0 -18 17 -18 16 -50 -2 -43 -11 4 -13 0 -9 -15 3 -12 9 -24 14 -27
15 -9 10 -44 -5 -44 -23 0 -28 -17 -14 -41 10 -17 10 -23 0 -26 -18 -7 -15
-23 4 -23 12 0 15 -6 11 -21 -8 -31 22 -37 44 -8 18 23 19 23 19 3 0 -12 -11
-29 -25 -38 -14 -9 -25 -23 -25 -31 0 -8 -4 -15 -10 -15 -12 0 -13 -47 -1 -54
5 -3 14 1 21 9 10 12 10 18 1 29 -10 12 -7 18 18 31 28 14 31 14 31 0 0 -8 -6
-15 -14 -15 -9 0 -14 -9 -13 -20 1 -23 2 -23 28 -10 20 11 28 -3 9 -15 -15
-10 -12 -35 5 -35 8 0 15 -7 15 -15 0 -8 10 -20 22 -26 22 -12 22 -12 5 14 -9
15 -17 28 -17 30 0 11 56 14 68 5 8 -7 12 -7 12 1 0 6 9 11 20 11 11 0 20 -7
20 -15 0 -9 16 -23 35 -32 37 -17 45 -36 21 -50 -18 -11 -27 -73 -9 -66 21 8
15 -11 -7 -25 -12 -7 -26 -9 -33 -5 -17 10 -87 14 -87 5 0 -4 5 -13 11 -19 8
-8 8 -13 0 -17 -6 -4 -11 -11 -11 -17 0 -16 21 -10 52 16 29 24 31 25 43 8 17
-23 9 -36 -18 -29 -25 6 -80 -48 -84 -84 -2 -24 -1 -24 13 -5 17 24 38 46 56
61 20 16 50 -6 37 -27 -12 -19 -11 -32 2 -23 6 3 16 0 21 -7 8 -11 9 -10 4 3
-6 21 0 23 18 6 10 -9 10 -20 3 -45 -6 -18 -14 -33 -19 -33 -5 0 -6 -6 -2 -12
4 -7 -1 -5 -11 4 -14 13 -22 14 -39 5 -26 -15 -36 -27 -36 -46 0 -10 7 -8 23
7 28 27 37 28 32 4 -2 -10 0 -24 4 -31 8 -13 41 -4 41 11 0 6 7 8 15 5 8 -4
17 -2 20 3 4 6 -2 10 -12 11 -10 0 -13 3 -6 5 13 6 73 -22 73 -34 0 -4 -9 -20
-20 -37 -18 -28 -20 -28 -20 -7 0 26 -3 26 -30 10 -17 -11 -22 -10 -30 2 -9
13 -10 13 -10 0 -1 -12 -4 -11 -14 3 -12 15 -18 17 -36 7 -12 -7 -31 -10 -41
-7 -11 3 -19 0 -19 -8 0 -18 -32 -28 -41 -14 -5 8 -11 5 -20 -10 -8 -11 -17
-21 -21 -21 -17 0 -7 29 17 51 24 23 35 57 15 44 -6 -3 -10 -2 -10 3 0 18 13
21 27 7 8 -8 20 -15 26 -15 8 0 7 4 -2 9 -12 8 -9 15 15 38 16 17 36 32 44 35
12 4 11 5 -2 10 -8 4 -26 0 -39 -7 -13 -8 -39 -21 -57 -29 -18 -8 -35 -22 -38
-31 -8 -19 -40 -20 -48 0 -3 8 2 19 12 24 9 5 14 13 10 17 -4 4 -15 1 -23 -6
-12 -10 -19 -10 -27 -2 -7 7 -20 12 -31 12 -10 0 -15 5 -12 10 12 19 -6 31
-21 15 -18 -17 -38 -19 -63 -5 -16 8 -20 5 -25 -21 -3 -17 -10 -28 -15 -25
-18 11 -21 -30 -5 -62 8 -18 14 -40 12 -49 -5 -28 -38 13 -38 48 0 36 -15 31
-25 -8 -4 -19 -2 -29 9 -35 9 -5 16 -17 16 -27 0 -17 12 -19 145 -20 121 -2
148 1 161 14 15 14 17 14 30 -2 13 -17 13 -17 14 2 1 20 1 20 15 1 15 -20 15
-20 15 0 1 18 1 18 14 2 13 -17 151 -18 2670 -18 l2656 0 0 2188 c0 2112 -1
2188 -19 2211 -12 16 -24 22 -35 18 -10 -4 -16 -1 -16 7 0 11 -8 12 -33 6 -23
-5 -40 -3 -52 6 -22 16 -55 18 -55 4 0 -5 -6 -7 -14 -4 -7 3 -13 17 -13 30 0
18 3 22 10 15 18 -18 37 -13 37 10 0 11 9 32 20 46 l20 26 -20 14 c-25 17 -43
8 -35 -18 5 -14 2 -17 -8 -13 -17 6 -77 -42 -77 -62 0 -8 5 -14 11 -14 5 0 7
-4 4 -10 -12 -19 -45 -11 -45 10 0 11 5 20 10 20 6 0 10 5 10 12 0 6 9 22 21
34 12 12 18 27 14 34 -4 6 -23 -7 -50 -35 -35 -38 -47 -45 -68 -40 -14 4 -28
2 -31 -4 -14 -21 -44 -11 -56 19 -11 27 -10 33 19 69 17 21 31 46 31 55 0 9
11 21 25 26 14 5 44 29 66 52 51 55 49 53 83 83 16 13 45 29 65 35 40 11 56
-1 68 -50 4 -14 12 -31 20 -38 17 -18 17 -32 -2 -32 -22 0 -18 -18 8 -31 12
-7 34 -25 48 -40 14 -16 29 -29 32 -29 4 0 7 425 7 945 l0 945 -3250 0 -3250
0 0 -2685z m2476 1945 c8 0 14 -3 14 -7 0 -14 -50 -8 -55 6 -4 9 0 11 11 7 8
-3 22 -6 30 -6z m-106 -52 c0 -4 5 -8 12 -8 9 0 9 3 1 11 -12 12 -7 39 7 39 4
0 11 -11 14 -25 4 -14 11 -25 18 -25 6 0 17 -8 24 -17 12 -16 12 -16 7 5 -4
16 -2 21 8 17 22 -9 51 -55 45 -71 -9 -25 -29 -16 -24 11 4 20 3 23 -8 14 -8
-6 -14 -22 -14 -34 0 -13 -7 -25 -15 -29 -8 -3 -15 -12 -15 -20 0 -7 -11 -17
-25 -20 -30 -8 -33 -22 -5 -29 30 -8 25 -35 -7 -40 -27 -4 -26 -4 4 -6 23 -1
36 5 47 21 12 17 18 20 28 10 18 -18 -11 -42 -59 -49 -29 -4 -43 -12 -55 -34
-15 -25 -15 -29 -2 -29 8 0 25 -5 37 -11 l21 -12 -24 -9 c-15 -6 -26 -5 -30 3
-8 12 -67 -37 -63 -52 2 -4 -9 -17 -23 -28 -19 -15 -31 -18 -55 -11 -17 5 -37
6 -45 3 -8 -3 -14 0 -14 6 0 6 5 11 10 11 6 0 10 7 10 15 0 22 -17 18 -30 -5
-6 -11 -16 -17 -22 -14 -7 5 -8 2 -4 -5 5 -7 0 -18 -10 -26 -17 -13 -17 -16
-4 -24 13 -9 13 -12 1 -23 -10 -10 -15 -10 -18 -1 -7 20 -34 3 -28 -18 4 -12
1 -21 -9 -25 -9 -3 -16 -12 -16 -18 0 -7 -12 -19 -27 -27 -16 -8 -31 -18 -34
-22 -3 -4 -12 -1 -19 8 -7 8 -19 15 -27 15 -12 0 -13 -3 -4 -14 15 -18 -4 -32
-23 -17 -9 8 -18 4 -34 -14 -12 -14 -22 -31 -23 -38 0 -6 -5 4 -11 23 l-10 35
-13 -25 c-8 -14 -12 -33 -9 -42 6 -20 -12 -25 -18 -6 -4 12 -28 3 -28 -11 0
-4 11 -13 25 -19 14 -6 25 -18 25 -26 0 -10 6 -13 16 -9 8 3 13 11 10 18 -2 7
11 19 30 28 20 10 34 24 34 34 0 15 2 16 10 3 8 -12 15 -11 54 8 47 22 66 37
116 87 17 16 30 24 30 18 0 -7 -4 -15 -10 -18 -19 -12 -10 -22 16 -17 15 3 29
13 31 23 3 11 12 19 19 19 8 0 14 5 14 10 0 6 -7 10 -15 10 -8 0 -15 -4 -15
-10 0 -5 -7 -10 -15 -10 -8 0 -15 5 -15 10 0 6 5 10 10 10 6 0 10 6 10 14 0 8
6 17 13 19 9 4 8 8 -3 17 -13 10 -13 11 1 7 9 -3 22 0 28 6 8 8 14 8 23 -1 10
-10 10 -15 -2 -22 -8 -5 -11 -12 -8 -16 4 -4 19 1 32 10 24 15 27 15 46 -1 27
-24 27 -48 0 -33 -16 9 -20 8 -20 -5 0 -10 -10 -15 -31 -15 -19 0 -28 -4 -23
-11 3 -6 16 -8 27 -5 12 3 26 1 32 -4 7 -6 23 0 46 19 19 15 49 36 67 45 29
15 35 15 54 2 19 -14 23 -13 40 10 11 13 25 24 31 24 8 0 8 -3 -1 -8 -10 -7
-8 -15 8 -35 22 -28 20 -50 -4 -41 -35 13 -22 -19 25 -65 50 -49 51 -52 35
-70 -12 -14 -14 -21 -6 -26 17 -10 -3 -27 -23 -19 -9 3 -17 15 -19 27 -2 12
-12 23 -22 25 -15 3 -18 0 -13 -17 7 -27 -9 -27 -23 -1 -6 11 -19 20 -30 20
-10 0 -20 6 -23 13 -3 9 -9 9 -25 0 -13 -8 -23 -9 -27 -3 -3 6 -15 15 -26 21
-19 9 -19 9 -10 -10 14 -24 15 -53 2 -33 -6 9 -19 11 -44 7 -27 -5 -41 -3 -52
9 -19 18 -35 21 -35 6 0 -5 7 -10 15 -10 17 0 20 -16 5 -25 -5 -3 -7 -12 -3
-20 3 -9 -1 -15 -11 -15 -9 0 -16 5 -16 12 0 6 -11 1 -25 -12 -24 -23 -33 -41
-17 -39 4 1 21 -2 39 -6 28 -6 30 -9 18 -22 -8 -8 -25 -13 -37 -11 -28 4 -58
-20 -51 -38 3 -9 -2 -14 -16 -14 -12 0 -21 -4 -21 -10 0 -5 9 -10 21 -10 20 0
19 -2 -7 -32 -20 -23 -39 -34 -61 -35 -76 -4 -122 0 -116 10 3 4 -6 19 -19 32
-22 22 -28 23 -59 13 -58 -18 -119 -47 -119 -56 0 -5 -12 -7 -27 -4 -28 5 -28
5 -9 -17 26 -29 17 -34 -40 -21 -40 9 -49 9 -56 -5 -16 -27 -67 -18 -99 17
-15 18 -31 29 -36 24 -4 -4 0 -13 10 -20 9 -7 17 -19 17 -26 0 -10 -3 -10 -15
0 -13 10 -15 9 -15 -9 0 -12 -6 -21 -15 -21 -8 0 -24 -9 -34 -19 -11 -11 -22
-17 -25 -14 -3 4 -6 0 -6 -9 0 -8 -11 -20 -25 -26 -14 -6 -25 -18 -25 -27 0
-8 -5 -15 -11 -15 -6 0 -9 -7 -5 -15 7 -18 -20 -46 -38 -39 -8 3 -17 1 -21 -5
-3 -6 -12 -11 -19 -11 -9 0 -13 15 -12 53 1 28 -1 57 -4 62 -20 30 -18 42 6
37 17 -3 24 0 24 12 0 9 -5 16 -11 16 -8 0 -7 5 1 15 24 29 0 28 -25 -1 -14
-16 -25 -24 -25 -17 0 6 5 15 10 18 6 3 7 17 4 30 -3 13 0 26 6 30 9 5 10 1 5
-14 -7 -22 10 -30 18 -8 4 8 8 9 14 1 14 -18 44 -12 60 13 11 16 13 35 9 66
-6 36 -3 46 14 62 11 10 20 24 20 32 0 7 3 13 8 13 4 0 29 21 56 45 39 36 45
46 32 51 -9 3 -28 -2 -42 -11 -20 -13 -28 -14 -34 -5 -9 15 -50 -34 -50 -60 0
-10 -7 -23 -15 -30 -9 -7 -13 -20 -10 -28 3 -9 0 -19 -7 -23 -11 -7 -11 -12 0
-29 10 -17 10 -20 -3 -20 -8 0 -15 4 -15 8 0 5 -11 15 -25 22 -15 8 -25 22
-25 36 0 13 -4 25 -9 29 -10 6 27 87 43 94 4 2 4 6 -2 10 -17 11 -25 51 -10
51 7 0 18 10 24 23 9 21 8 22 -25 19 l-36 -4 30 31 c17 17 36 31 43 31 20 0 8
25 -12 25 -18 0 -36 21 -36 43 0 19 15 14 44 -15 29 -29 31 -29 40 10 6 26 -8
39 -17 15 -3 -10 -8 -9 -20 2 -15 14 -13 19 23 59 22 24 37 47 35 51 -7 11 22
33 115 88 47 28 94 59 105 69 56 52 65 56 91 43 46 -25 105 31 69 66 -15 15
-15 18 0 34 9 10 25 18 36 17 26 -2 24 -17 -2 -17 -11 0 -17 -4 -14 -10 3 -5
17 -10 31 -10 13 0 24 -5 24 -11 0 -6 10 -9 23 -7 12 2 21 8 20 14 -1 6 8 16
21 22 22 10 46 3 49 -14 3 -15 40 -5 64 18 17 16 20 24 12 35 -16 18 18 30 43
14 11 -7 28 -9 39 -6 12 4 19 2 19 -6 0 -10 3 -10 12 -1 7 7 20 12 30 12 20 0
71 -48 63 -60 -2 -4 11 -2 30 4 19 6 35 15 35 19 0 5 9 5 20 2 15 -5 20 -2 20
14 0 11 8 22 19 26 10 3 29 15 42 26 22 19 24 19 36 3 7 -10 13 -21 13 -26z
m-115 12 c-3 -5 -10 -10 -16 -10 -5 0 -9 5 -9 10 0 6 7 10 16 10 8 0 12 -4 9
-10z m-325 -51 c0 -5 -7 -9 -15 -9 -15 0 -20 12 -9 23 8 8 24 -1 24 -14z
m3453 -49 c-7 -28 -21 -34 -39 -19 -14 12 -14 14 2 26 26 19 43 16 37 -7z
m-3720 -35 c-5 -13 -23 -22 -23 -11 0 15 14 35 21 31 4 -3 6 -12 2 -20z m846
-17 c-50 -30 -72 -21 -49 21 8 16 14 17 44 7 l34 -10 -29 -18z m2549 19 c31 8
72 -5 72 -22 0 -24 73 -20 95 5 20 23 82 37 96 23 7 -7 -1 -15 -23 -23 -18 -8
-41 -22 -52 -33 -15 -15 -27 -18 -65 -12 -25 3 -63 7 -84 8 -25 1 -36 5 -33
13 4 10 -8 11 -47 7 l-52 -6 24 26 c16 18 28 24 36 17 6 -5 21 -7 33 -3z
m-2068 -77 c0 -5 -2 -10 -4 -10 -3 0 -8 5 -11 10 -3 6 -1 10 4 10 6 0 11 -4
11 -10z m-190 -48 c0 -7 -8 -12 -17 -10 -24 4 -27 24 -3 24 11 0 20 -6 20 -14z
m120 -3 c0 -6 -4 -7 -10 -4 -5 3 -10 11 -10 16 0 6 5 7 10 4 6 -3 10 -11 10
-16z m-190 -29 c0 -5 -7 -10 -16 -10 -8 0 -12 5 -9 10 3 6 10 10 16 10 5 0 9
-4 9 -10z m25 -29 c3 -6 -5 -15 -17 -22 -20 -11 -21 -10 -11 3 7 8 10 18 6 21
-3 4 -1 7 5 7 6 0 13 -4 17 -9z m85 -11 c0 -5 -4 -10 -10 -10 -5 0 -10 5 -10
10 0 6 5 10 10 10 6 0 10 -4 10 -10z m-224 -26 c-3 -8 -1 -14 4 -14 6 0 10 7
10 15 0 8 7 15 15 15 8 0 15 -7 15 -15 0 -9 11 -20 25 -25 29 -11 29 -13 13
-43 -20 -34 -54 -53 -42 -23 9 23 -16 29 -37 10 -19 -17 -20 -17 -37 0 -16 16
-16 18 3 33 20 15 20 15 -3 8 -16 -5 -22 -3 -20 7 2 7 -6 13 -17 14 -36 2 -40
4 -25 14 24 15 60 12 60 -6 0 -8 5 -12 11 -9 6 4 8 13 5 20 -6 16 3 27 16 19
5 -3 7 -12 4 -20z m-1363 -51 c-7 -2 -19 -2 -25 0 -7 3 -2 5 12 5 14 0 19 -2
13 -5z m1082 -13 c3 -5 1 -10 -4 -10 -6 0 -11 5 -11 10 0 6 2 10 4 10 3 0 8
-4 11 -10z m-1205 -105 c0 -8 -4 -15 -10 -15 -5 0 -10 7 -10 15 0 8 5 15 10
15 6 0 10 -7 10 -15z m-30 -20 c0 -8 -7 -15 -16 -15 -14 0 -14 3 -4 15 7 8 14
15 16 15 2 0 4 -7 4 -15z m3487 -112 c-16 -16 -18 -16 -34 0 -16 16 -15 17 17
17 32 0 33 -1 17 -17z m1646 -20 c-7 -20 -62 -73 -75 -73 -15 0 -8 41 9 47 9
4 25 15 35 25 23 23 39 23 31 1z m-5060 -73 c-20 -22 -40 -40 -45 -40 -14 0
-9 37 7 50 8 7 12 16 9 21 -3 5 2 9 10 9 9 0 16 5 16 10 0 7 6 7 20 0 19 -10
19 -12 -17 -50z m1082 5 c-37 -31 -43 -25 -15 15 17 24 25 29 34 20 8 -9 3
-18 -19 -35z m115 24 c0 -5 -19 -18 -42 -29 -48 -23 -48 -23 -48 -10 0 6 6 10
13 10 8 0 19 11 25 24 8 18 16 23 31 19 12 -3 21 -9 21 -14z m70 1 c0 -15 -27
-23 -47 -15 -17 7 -16 8 2 15 28 12 45 12 45 0z m3630 -80 c-12 -22 -30 -19
-30 5 0 16 33 38 38 25 2 -5 -2 -18 -8 -30z m-4960 -10 c0 -5 -5 -10 -10 -10
-6 0 -8 -10 -4 -24 4 -18 1 -27 -14 -35 -30 -16 -36 -14 -49 15 -10 21 -10 24
2 14 19 -16 35 -4 35 26 0 17 5 24 20 24 11 0 20 -4 20 -10z m4936 -24 c3 -8
-11 -32 -35 -56 -26 -27 -41 -52 -43 -73 -2 -25 -8 -32 -25 -32 -31 0 -38 -12
-19 -30 17 -18 12 -40 -6 -29 -6 4 -17 -1 -24 -11 -12 -16 -18 -17 -39 -7 -21
10 -25 17 -19 35 4 12 15 28 24 34 10 7 21 27 24 45 14 74 143 172 162 124z
m-4844 -61 c0 -5 -5 -11 -11 -13 -6 -2 -11 4 -11 13 0 9 5 15 11 13 6 -2 11
-8 11 -13z m-32 -39 c0 -2 -9 -6 -20 -9 -11 -3 -18 -1 -14 4 5 9 34 13 34 5z
m710 -41 c0 -8 -7 -15 -15 -15 -16 0 -20 12 -8 23 11 12 23 8 23 -8z m-92 -13
c4 -14 -34 -16 -42 -3 -6 10 13 21 28 17 6 -1 12 -8 14 -14z m67 -27 c17 -14
26 -25 22 -25 -14 0 -67 34 -67 42 0 14 14 8 45 -17z m506 -35 c51 -14 68 -36
43 -55 -22 -16 -38 -20 -29 -6 10 17 -12 21 -25 6 -18 -22 -28 -19 -44 14 -11
21 -12 31 -3 40 13 13 13 13 58 1z m-1316 -41 c-4 -5 -13 -9 -22 -9 -13 0 -13
3 -3 15 13 15 35 11 25 -6z m1425 -9 c0 -5 -4 -10 -10 -10 -5 0 -10 5 -10 10
0 6 5 10 10 10 6 0 10 -4 10 -10z m-1446 -114 c-3 -14 -10 -26 -15 -26 -5 0
-9 2 -9 4 0 2 -3 12 -7 22 -4 11 -3 15 4 11 6 -4 14 0 17 9 10 26 18 10 10
-20z m1926 14 c-19 -13 -30 -13 -30 0 0 6 10 10 23 10 18 0 19 -2 7 -10z
m-1955 -50 c4 0 24 -13 45 -30 21 -16 43 -30 49 -30 16 0 13 -37 -3 -43 -11
-4 -13 -13 -7 -34 8 -30 5 -53 -9 -53 -4 0 -23 14 -41 31 -25 23 -30 32 -19
39 22 13 21 55 -2 69 -25 15 -29 12 -32 -32 -3 -40 -14 -60 -27 -51 -5 3 -7
10 -3 15 3 6 3 18 -1 27 -16 37 -14 61 6 67 21 7 25 20 9 30 -6 4 -7 11 -4 17
5 7 11 5 19 -5 7 -10 16 -17 20 -17z m235 0 c0 -5 -2 -10 -4 -10 -3 0 -8 5
-11 10 -3 6 -1 10 4 10 6 0 11 -4 11 -10z m4876 -17 c-10 -10 -19 5 -10 18 6
11 8 11 12 0 2 -7 1 -15 -2 -18z m144 -43 c0 -5 -5 -10 -11 -10 -5 0 -7 5 -4
10 3 6 8 10 11 10 2 0 4 -4 4 -10z m-3886 -55 c6 -16 -34 -29 -48 -15 -12 12
12 40 29 34 7 -3 16 -12 19 -19z m-117 -47 c6 -7 13 -26 16 -42 3 -22 0 -30
-13 -33 -10 -3 -21 -16 -24 -29 -9 -34 -31 -30 -55 12 -24 41 -25 51 -8 87 18
39 55 41 84 5z m193 -8 c0 -11 -4 -20 -10 -20 -5 0 -10 9 -10 20 0 11 5 20 10
20 6 0 10 -9 10 -20z m-1426 -6 c5 -14 4 -15 -9 -4 -17 14 -19 20 -6 20 5 0
12 -7 15 -16z m1350 -38 c-7 -28 -23 -33 -42 -14 -20 20 -15 40 8 33 15 -5 20
-2 20 11 0 13 3 15 11 7 5 -5 7 -22 3 -37z m476 -15 c-13 -25 -23 -26 -40 -6
-10 13 -9 15 8 15 12 0 24 5 27 11 12 19 17 1 5 -20z m-1560 -5 c0 -9 -16 -10
-55 -6 -30 3 -55 2 -55 -3 0 -4 -4 -5 -10 -2 -26 16 -6 25 42 19 35 -5 49 -4
44 4 -4 6 1 8 14 5 11 -3 20 -11 20 -17z m1475 -16 c17 -25 20 -26 57 -16 47
12 60 0 55 -51 -1 -18 1 -33 5 -33 11 0 21 47 14 65 -6 15 4 19 39 15 25 -3
34 -17 29 -43 -6 -34 -36 -59 -61 -52 -13 3 -23 1 -23 -4 0 -4 -15 -11 -32
-15 -18 -4 -43 -19 -56 -34 -13 -15 -20 -20 -16 -12 5 12 4 12 -6 3 -7 -6 -20
-9 -29 -5 -14 5 -14 3 2 -12 26 -26 21 -38 -13 -31 -29 6 -42 -7 -19 -20 5 -4
9 -14 7 -23 -5 -25 -64 -23 -78 3 -9 16 -19 19 -54 17 -34 -3 -45 0 -50 14 -3
9 -5 18 -4 18 67 39 72 51 27 60 -27 5 -31 10 -27 31 4 21 3 23 -13 14 -19
-10 -25 -2 -11 16 4 6 24 19 45 29 20 11 37 24 36 30 -3 23 1 36 11 36 6 0 10
-8 10 -17 0 -13 2 -15 8 -5 5 7 16 10 25 6 11 -4 17 -1 17 9 0 41 79 46 105 7z
m-325 0 c0 -5 -2 -10 -4 -10 -3 0 -8 5 -11 10 -3 6 -1 10 4 10 6 0 11 -4 11
-10z m-1009 -74 c-7 -8 -10 -20 -6 -26 4 -6 -1 -17 -11 -24 -12 -9 -14 -15 -6
-20 17 -10 15 -26 -3 -26 -8 0 -15 4 -15 9 0 5 -13 16 -30 25 -32 15 -41 7
-15 -14 20 -17 19 -26 -6 -51 -14 -14 -28 -19 -45 -15 -28 7 -31 31 -6 47 13
8 16 21 14 50 -4 34 -2 39 18 39 11 0 19 4 15 9 -3 5 -1 13 5 16 15 9 42 -15
36 -32 -3 -7 -3 -13 0 -13 9 0 30 24 37 44 6 14 11 16 19 8 8 -8 8 -15 -1 -26z
m1559 24 c0 -5 -5 -10 -11 -10 -5 0 -7 5 -4 10 3 6 8 10 11 10 2 0 4 -4 4 -10z
m-1520 -45 c0 -8 -4 -15 -10 -15 -5 0 -10 7 -10 15 0 8 5 15 10 15 6 0 10 -7
10 -15z m858 -19 c5 -23 -28 -86 -44 -86 -7 0 -19 -3 -28 -6 -22 -8 -22 39 0
57 13 10 17 10 24 -1 5 -8 13 -11 17 -6 4 5 2 11 -4 13 -16 6 -17 25 -1 41 16
16 32 10 36 -12z m44 -1 c-5 -29 -17 -32 -26 -8 -4 9 -1 20 6 25 21 13 25 9
20 -17z m-912 -19 c0 -8 -7 -16 -15 -20 -10 -4 -15 1 -15 14 0 11 7 20 15 20
8 0 15 -6 15 -14z m1406 -35 c-12 -19 -24 -12 -19 10 4 13 9 17 15 11 6 -6 7
-15 4 -21z m-536 -46 c0 -8 -4 -15 -10 -15 -5 0 -10 7 -10 15 0 8 5 15 10 15
6 0 10 -7 10 -15z m-280 -25 c33 -24 81 -44 97 -41 24 4 22 -17 -4 -23 -40
-11 -13 -29 47 -31 30 -1 57 -9 69 -19 10 -9 25 -14 34 -11 8 4 18 2 22 -4 10
-18 39 -13 53 9 15 24 48 26 60 3 6 -10 16 -14 26 -10 25 10 19 27 -9 27 -16
0 -25 6 -25 15 0 18 16 20 26 4 5 -8 8 -8 13 0 5 8 24 9 62 3 47 -7 54 -11 52
-29 -2 -14 4 -24 17 -28 20 -6 25 -17 13 -28 -3 -4 -12 -2 -20 5 -7 6 -17 7
-21 3 -4 -4 -1 -10 6 -12 23 -9 12 -30 -25 -49 -21 -10 -48 -30 -60 -44 l-22
-25 -1 28 c0 15 -4 27 -10 27 -10 0 -9 -27 2 -45 11 -18 1 -76 -17 -97 -14
-17 -15 -24 -4 -44 7 -13 20 -24 30 -24 12 0 16 -5 13 -15 -4 -10 0 -15 12
-15 14 -1 11 -5 -11 -17 -16 -9 -36 -24 -43 -35 -8 -11 -25 -18 -45 -18 -39 0
-52 8 -61 38 -8 23 -30 30 -41 12 -3 -5 1 -10 10 -10 9 0 13 -5 9 -11 -3 -6
-17 -8 -30 -5 -14 4 -24 2 -24 -4 0 -5 -7 -10 -15 -10 -9 0 -15 6 -14 13 4 33
-2 48 -18 45 -12 -2 -17 -11 -15 -26 4 -25 -10 -29 -30 -8 -8 8 -23 16 -34 18
-24 4 -26 34 -1 30 10 -2 17 3 17 13 0 9 -4 13 -10 10 -5 -3 -33 -8 -60 -10
-48 -3 -51 -2 -67 28 -19 38 -61 79 -73 72 -4 -3 -7 2 -6 11 1 18 -11 26 -69
44 -56 18 -69 33 -43 51 12 8 32 24 46 37 28 25 44 28 41 10 -4 -35 1 -41 20
-24 17 16 26 17 71 7 28 -6 69 -8 91 -5 25 4 44 2 54 -6 12 -10 15 -10 15 3 0
28 53 31 72 3 15 -23 14 2 -3 44 -16 41 -19 43 -25 22 -6 -21 -11 -23 -40 -18
-18 4 -35 2 -39 -4 -13 -22 -36 -10 -33 17 2 15 -2 28 -9 30 -7 3 -13 0 -13
-6 0 -7 -8 -7 -27 0 -64 26 -73 34 -82 67 -9 30 -7 37 16 58 31 29 47 30 83 4z
m-160 -5 c0 -8 -4 -15 -10 -15 -5 0 -10 7 -10 15 0 8 5 15 10 15 6 0 10 -7 10
-15z m755 -135 c3 -5 -1 -10 -10 -10 -9 0 -13 5 -10 10 3 6 8 10 10 10 2 0 7
-4 10 -10z m-831 -13 c28 -21 16 -41 -12 -22 -22 16 -30 35 -14 35 5 0 16 -6
26 -13z m-50 -13 c3 -8 2 -12 -4 -9 -6 3 -10 10 -10 16 0 14 7 11 14 -7z m171
6 c3 -5 1 -10 -4 -10 -6 0 -11 5 -11 10 0 6 2 10 4 10 3 0 8 -4 11 -10z m-156
-89 c-3 -6 -10 -7 -18 -2 -7 5 -10 14 -6 21 9 14 29 -2 24 -19z m-666 -148
c-5 -13 -2 -15 16 -10 18 4 21 2 16 -13 -4 -11 0 -22 10 -28 9 -4 20 -25 25
-46 9 -43 -2 -53 -48 -41 -45 11 -72 43 -72 87 0 21 5 38 10 38 6 0 10 7 10
15 0 8 9 15 20 15 14 0 18 -5 13 -17z m1474 -79 c-3 -3 -12 -4 -19 -1 -8 3 -5
6 6 6 11 1 17 -2 13 -5z m-582 -46 c-5 -24 20 -58 42 -58 7 0 13 -7 13 -15 0
-18 17 -20 22 -4 3 8 14 6 37 -5 26 -14 30 -20 20 -32 -14 -17 2 -19 18 -3 7
7 19 9 27 6 13 -5 12 -11 -9 -33 -13 -14 -29 -23 -35 -19 -6 4 -20 -1 -31 -11
-16 -14 -24 -16 -38 -7 -14 9 -22 9 -31 0 -10 -10 -12 -8 -7 6 6 17 -1 21 -37
17 -11 -1 -15 3 -12 9 4 6 2 11 -4 11 -8 0 -8 6 0 20 8 16 7 28 -7 53 -10 17
-22 35 -27 39 -14 10 26 44 56 47 4 1 5 -9 3 -21z m475 3 c0 -11 -4 -23 -10
-26 -6 -4 -10 5 -10 19 0 14 5 26 10 26 6 0 10 -9 10 -19z m-1416 -15 c-1 -9
2 -16 7 -16 5 0 9 -4 9 -10 0 -5 -7 -10 -15 -10 -8 0 -15 7 -15 15 0 9 -9 15
-22 15 -21 0 -21 0 -2 15 23 17 40 14 38 -9z m43 -28 c-3 -8 -6 -5 -6 6 -1 11
2 17 5 13 3 -3 4 -12 1 -19z m4818 -428 c3 -5 -1 -10 -9 -10 -9 0 -16 5 -16
10 0 6 4 10 9 10 6 0 13 -4 16 -10z m-80 -70 c3 -5 -1 -10 -10 -10 -9 0 -13 5
-10 10 3 6 8 10 10 10 2 0 7 -4 10 -10z m-4234 -30 c-22 -19 -41 -19 -41 0 0
9 22 17 50 19 10 0 7 -6 -9 -19z m-41 -19 c0 -6 -4 -13 -10 -16 -5 -3 -10 1
-10 9 0 9 5 16 10 16 6 0 10 -4 10 -9z m750 -377 c0 -18 -22 -42 -35 -38 -11
5 -12 11 -4 25 9 17 39 27 39 13z m-1551 -857 c-2 -1 -12 -9 -22 -16 -15 -12
-17 -12 -11 3 3 9 13 16 22 16 8 0 13 -1 11 -3z m36 -17 c3 -5 -1 -10 -9 -10
-9 0 -16 5 -16 10 0 6 4 10 9 10 6 0 13 -4 16 -10z m15 -50 c0 -5 -4 -10 -10
-10 -5 0 -10 5 -10 10 0 6 5 10 10 10 6 0 10 -4 10 -10z m148 -48 c2 -7 -2
-10 -12 -6 -9 3 -16 11 -16 16 0 13 23 5 28 -10z m-528 -19 c-1 -19 -19 -35
-30 -28 -10 6 -9 11 5 22 22 15 25 16 25 6z m471 -40 c5 -14 17 -32 27 -39 24
-18 7 -30 -21 -15 -18 10 -23 19 -19 38 4 22 2 24 -15 19 -13 -4 -23 -2 -26 7
-3 8 4 14 19 15 18 1 27 -5 35 -25z m124 -23 c14 0 16 -3 7 -9 -15 -9 -62 -3
-62 8 0 15 14 21 24 11 5 -5 19 -10 31 -10z m-65 -10 c0 -5 -4 -10 -10 -10 -5
0 -10 5 -10 10 0 6 5 10 10 10 6 0 10 -4 10 -10z m30 -70 c0 -15 5 -31 10 -33
6 -3 5 -4 -2 -3 -7 1 -15 11 -17 22 -2 10 -10 23 -18 28 -13 7 -13 10 -2 17
19 12 29 1 29 -31z m30 16 c0 -3 -4 -8 -10 -11 -5 -3 -10 -1 -10 4 0 6 5 11
10 11 6 0 10 -2 10 -4z m-72 -83 c-15 -18 -21 -9 -13 18 6 16 9 18 16 8 4 -8
3 -19 -3 -26z m370 -814 c-2 -6 -8 -10 -13 -10 -5 0 -11 4 -13 10 -2 6 4 11
13 11 9 0 15 -5 13 -11z m42 -24 c0 -8 -4 -15 -10 -15 -5 0 -10 7 -10 15 0 8
5 15 10 15 6 0 10 -7 10 -15z m-26 -41 c11 -28 6 -39 -9 -20 -8 11 -15 23 -15
28 0 14 18 9 24 -8z m-49 -91 c-22 -15 -28 -12 -19 10 3 9 12 13 21 10 14 -5
13 -8 -2 -20z m15 -43 c0 -5 -7 -10 -16 -10 -8 0 -12 5 -9 10 3 6 10 10 16 10
5 0 9 -4 9 -10z m36 -41 c3 -6 -1 -18 -10 -27 -9 -9 -16 -11 -16 -5 0 6 -3 18
-6 27 -7 18 21 23 32 5z m34 -35 c0 -3 -7 -12 -15 -20 -19 -19 -40 -9 -22 11
12 14 37 20 37 9z m-516 -30 c3 -8 2 -12 -4 -9 -6 3 -10 10 -10 16 0 14 7 11
14 -7z m86 -36 c0 -4 -7 -8 -15 -8 -8 0 -22 -11 -31 -24 -9 -16 -21 -23 -31
-19 -14 5 -14 7 0 14 9 6 13 17 10 29 -5 18 -1 21 31 18 20 -1 36 -6 36 -10z
m37 -14 c-3 -3 -12 -4 -19 -1 -8 3 -5 6 6 6 11 1 17 -2 13 -5z m54 -45 c11
-11 18 -23 16 -26 -11 -11 -55 -9 -72 3 -15 11 -16 16 -5 29 17 21 36 19 61
-6z m-91 -10 c0 -5 -4 -9 -10 -9 -5 0 -10 7 -10 16 0 8 5 12 10 9 6 -3 10 -10
10 -16z m-63 -46 c-9 -9 -20 -13 -24 -9 -4 4 -1 11 7 16 25 16 35 11 17 -7z"/>
<path d="M2345 5650 c-3 -5 1 -10 10 -10 9 0 13 5 10 10 -3 6 -8 10 -10 10 -2
0 -7 -4 -10 -10z"/>
<path d="M2411 5631 c-7 -5 -10 -14 -7 -20 11 -17 24 -13 36 9 12 22 -3 27
-29 11z"/>
<path d="M1740 5589 c0 -5 -4 -7 -10 -4 -5 3 -7 0 -4 -8 3 -9 14 -12 30 -9 27
5 31 17 8 26 -21 8 -24 8 -24 -5z"/>
<path d="M1920 5590 c0 -5 5 -10 10 -10 6 0 10 5 10 10 0 6 -4 10 -10 10 -5 0
-10 -4 -10 -10z"/>
<path d="M2320 5440 c0 -5 5 -10 10 -10 6 0 10 5 10 10 0 6 -4 10 -10 10 -5 0
-10 -4 -10 -10z"/>
<path d="M2276 5361 c-4 -7 -5 -15 -2 -18 9 -9 19 4 14 18 -4 11 -6 11 -12 0z"/>
<path d="M1811 5333 c-1 -12 4 -25 10 -28 14 -9 27 4 13 13 -6 4 -14 14 -17
22 -4 10 -6 8 -6 -7z"/>
<path d="M2257 5315 c-13 -9 -15 -15 -7 -20 7 -4 19 -1 27 8 19 19 3 29 -20
12z"/>
<path d="M2010 5282 c-5 -2 -10 -8 -10 -13 0 -15 57 -10 63 5 5 13 -24 17 -53
8z"/>
<path d="M1511 5224 c0 -11 3 -14 6 -6 3 7 2 16 -1 19 -3 4 -6 -2 -5 -13z"/>
<path d="M1346 5211 c-3 -5 1 -11 9 -15 8 -3 15 -1 15 4 0 13 -18 22 -24 11z"/>
<path d="M2327 5159 c-10 -11 -17 -22 -15 -24 7 -8 67 28 62 36 -9 15 -29 10
-47 -12z"/>
<path d="M2412 5168 c-8 -8 -5 -16 11 -28 22 -18 37 -18 37 1 0 6 -4 7 -10 4
-5 -3 -10 1 -10 9 0 20 -14 28 -28 14z"/>
<path d="M1271 5129 c-10 -28 -4 -40 10 -19 7 12 11 12 17 2 6 -9 13 -7 28 9
18 22 18 22 0 16 -10 -4 -25 -2 -32 4 -11 9 -16 6 -23 -12z"/>
<path d="M2185 5101 c-6 -11 9 -23 19 -14 9 9 7 23 -3 23 -6 0 -12 -4 -16 -9z"/>
<path d="M1252 5061 c-13 -30 -7 -81 9 -81 13 0 11 28 -3 32 -7 3 -3 13 11 27
20 20 21 25 9 37 -11 11 -15 9 -26 -15z"/>
<path d="M2485 5080 c3 -5 14 -10 23 -10 15 0 15 2 2 10 -20 13 -33 13 -25 0z"/>
<path d="M2220 5070 c0 -5 5 -10 10 -10 6 0 10 5 10 10 0 6 -4 10 -10 10 -5 0
-10 -4 -10 -10z"/>
<path d="M2445 5071 c-6 -11 9 -23 19 -14 9 9 7 23 -3 23 -6 0 -12 -4 -16 -9z"/>
<path d="M2080 5015 c10 -13 10 -19 -5 -35 -18 -20 -13 -40 11 -40 8 0 13 4 9
10 -3 5 0 18 7 29 9 15 9 23 -1 35 -8 9 -18 16 -23 16 -6 0 -5 -7 2 -15z"/>
<path d="M1752 4979 c2 -6 8 -10 13 -10 5 0 11 4 13 10 2 6 -4 11 -13 11 -9 0
-15 -5 -13 -11z"/>
<path d="M1215 4940 c-16 -18 -16 -20 -1 -26 20 -8 21 -24 1 -24 -18 0 -19
-12 -3 -28 16 -16 31 -15 25 2 -3 7 0 19 6 25 8 8 6 15 -8 25 -16 12 -17 16
-6 30 19 23 8 20 -14 -4z"/>
<path d="M1558 4949 c-10 -5 -18 -17 -18 -26 0 -15 2 -15 18 0 10 10 24 17 30
17 7 0 12 5 12 10 0 13 -20 12 -42 -1z"/>
<path d="M1716 4945 c-5 -14 52 -80 61 -71 6 6 -15 44 -37 66 -15 15 -20 16
-24 5z"/>
<path d="M2015 4940 c-3 -5 3 -10 14 -10 12 0 21 5 21 10 0 6 -6 10 -14 10 -8
0 -18 -4 -21 -10z"/>
<path d="M1670 4930 c0 -5 5 -10 11 -10 5 0 7 5 4 10 -3 6 -8 10 -11 10 -2 0
-4 -4 -4 -10z"/>
<path d="M1800 4925 c-14 -8 -20 -14 -15 -14 6 0 21 6 35 14 14 8 21 14 15 14
-5 0 -21 -6 -35 -14z"/>
<path d="M1694 4887 c4 -17 1 -31 -9 -41 -24 -24 -2 -26 26 -2 28 24 27 41 -3
57 -19 10 -20 9 -14 -14z"/>
<path d="M1646 4885 c-3 -8 -1 -15 4 -15 6 0 10 7 10 15 0 8 -2 15 -4 15 -2 0
-6 -7 -10 -15z"/>
<path d="M1960 4881 c0 -6 5 -13 10 -16 6 -3 10 1 10 9 0 9 -4 16 -10 16 -5 0
-10 -4 -10 -9z"/>
<path d="M1474 4838 c-6 -7 -15 -25 -22 -40 -10 -24 -9 -28 4 -28 8 0 17 -6
20 -14 3 -8 15 -11 31 -8 22 4 24 2 18 -17 -4 -14 -2 -21 7 -21 13 0 39 65 30
75 -3 3 -19 3 -36 0 -17 -3 -38 -1 -46 5 -13 9 -13 12 2 23 10 8 13 18 9 26
-6 9 -10 9 -17 -1z"/>
<path d="M2000 4843 c8 -3 23 -12 33 -21 21 -19 23 -9 1 12 -8 9 -23 16 -32
15 -14 0 -14 -2 -2 -6z"/>
<path d="M1314 4814 c4 -9 1 -23 -5 -31 -20 -23 0 -28 23 -6 19 20 20 23 5 37
-20 21 -31 20 -23 0z"/>
<path d="M1965 4820 c3 -5 8 -10 11 -10 2 0 4 5 4 10 0 6 -5 10 -11 10 -5 0
-7 -4 -4 -10z"/>
<path d="M2005 4790 c3 -5 8 -10 11 -10 2 0 4 5 4 10 0 6 -5 10 -11 10 -5 0
-7 -4 -4 -10z"/>
<path d="M1387 4784 c-8 -8 1 -24 14 -24 5 0 9 7 9 15 0 15 -12 20 -23 9z"/>
<path d="M1238 4702 c-3 -11 0 -19 8 -19 16 0 19 23 5 31 -5 3 -11 -2 -13 -12z"/>
<path d="M1250 4575 c0 -8 5 -15 10 -15 6 0 10 7 10 15 0 8 -4 15 -10 15 -5 0
-10 -7 -10 -15z"/>
<path d="M2725 4211 c-3 -5 -1 -12 5 -16 5 -3 10 1 10 9 0 18 -6 21 -15 7z"/>
<path d="M2835 4190 c3 -5 8 -10 11 -10 2 0 4 5 4 10 0 6 -5 10 -11 10 -5 0
-7 -4 -4 -10z"/>
<path d="M2655 3970 c-3 -5 -1 -10 4 -10 6 0 11 5 11 10 0 6 -2 10 -4 10 -3 0
-8 -4 -11 -10z"/>
<path d="M2487 3866 c-12 -9 -14 -16 -7 -21 6 -4 18 -1 27 7 13 10 17 10 20 1
3 -7 9 -13 14 -13 5 0 4 9 -3 20 -15 23 -26 25 -51 6z"/>
<path d="M2256 3791 c-4 -7 -5 -15 -2 -18 9 -9 19 4 14 18 -4 11 -6 11 -12 0z"/>
<path d="M2295 3770 c-3 -5 3 -10 14 -10 12 0 21 5 21 10 0 6 -6 10 -14 10 -8
0 -18 -4 -21 -10z"/>
<path d="M2361 3764 c0 -11 3 -14 6 -6 3 7 2 16 -1 19 -3 4 -6 -2 -5 -13z"/>
<path d="M2303 3700 c-10 -15 -9 -17 8 -13 20 5 25 18 11 27 -4 2 -13 -4 -19
-14z"/>
<path d="M2390 3680 c0 -5 5 -10 10 -10 6 0 10 5 10 10 0 6 -4 10 -10 10 -5 0
-10 -4 -10 -10z"/>
<path d="M2350 3570 c20 -13 43 -13 35 0 -3 6 -16 10 -28 10 -18 0 -19 -2 -7
-10z"/>
<path d="M2085 3320 c3 -5 11 -10 16 -10 6 0 7 5 4 10 -3 6 -11 10 -16 10 -6
0 -7 -4 -4 -10z"/>
<path d="M6261 4757 c-14 -17 -4 -27 26 -27 27 0 29 6 9 26 -18 17 -21 17 -35
1z"/>
<path d="M6484 4579 c-3 -6 -1 -16 5 -22 8 -8 11 -5 11 11 0 24 -5 28 -16 11z"/>
<path d="M6478 4499 c-21 -12 -24 -29 -4 -29 7 0 16 9 19 20 3 11 4 20 4 20
-1 0 -10 -5 -19 -11z"/>
<path d="M689 1483 c-1 -5 -1 -11 0 -15 0 -5 -7 -8 -18 -8 -10 0 -24 -7 -31
-15 -15 -18 -4 -19 39 -4 30 10 43 29 20 29 -5 0 -7 5 -4 10 3 6 4 10 1 10 -3
0 -7 -3 -7 -7z"/>
<path d="M521 1434 c0 -11 3 -14 6 -6 3 7 2 16 -1 19 -3 4 -6 -2 -5 -13z"/>
<path d="M775 1440 c3 -5 10 -10 16 -10 5 0 9 5 9 10 0 6 -7 10 -16 10 -8 0
-12 -4 -9 -10z"/>
<path d="M297 1423 c-16 -16 -6 -30 18 -25 20 3 23 7 14 18 -13 15 -22 17 -32
7z"/>
<path d="M656 1411 c-3 -4 3 -16 14 -26 13 -12 20 -14 20 -6 0 17 -28 43 -34
32z"/>
<path d="M730 1410 c0 -5 7 -10 16 -10 8 0 12 5 9 10 -3 6 -10 10 -16 10 -5 0
-9 -4 -9 -10z"/>
<path d="M841 1354 c0 -11 3 -14 6 -6 3 7 2 16 -1 19 -3 4 -6 -2 -5 -13z"/>
<path d="M575 1310 c3 -5 8 -10 11 -10 2 0 4 5 4 10 0 6 -5 10 -11 10 -5 0 -7
-4 -4 -10z"/>
<path d="M572 1263 c-16 -29 -15 -33 8 -33 22 0 23 4 11 35 -8 19 -8 19 -19
-2z"/>
<path d="M870 1270 c0 -5 4 -10 9 -10 6 0 13 5 16 10 3 6 -1 10 -9 10 -9 0
-16 -4 -16 -10z"/>
<path d="M805 1260 c4 -6 11 -8 16 -5 14 9 11 15 -7 15 -8 0 -12 -5 -9 -10z"/>
<path d="M800 1110 c0 -5 4 -10 9 -10 6 0 13 5 16 10 3 6 -1 10 -9 10 -9 0
-16 -4 -16 -10z"/>
<path d="M1128 543 c7 -3 16 -2 19 1 4 3 -2 6 -13 5 -11 0 -14 -3 -6 -6z"/>
<path d="M1018 471 c-10 -10 -15 -21 -11 -24 7 -8 43 21 43 35 0 13 -13 8 -32
-11z"/>
<path d="M1195 430 c3 -5 8 -10 11 -10 2 0 4 5 4 10 0 6 -5 10 -11 10 -5 0 -7
-4 -4 -10z"/>
<path d="M1081 414 c-1 -13 -13 -26 -38 -37 -21 -9 -51 -28 -68 -41 -29 -24
-29 -25 -7 -26 13 0 22 -6 21 -12 -3 -26 1 -48 9 -48 5 0 22 11 37 24 15 13
34 22 40 19 7 -2 16 0 20 6 10 17 -47 13 -69 -4 -29 -22 -43 -18 -18 4 12 10
22 23 22 30 0 6 9 11 19 11 21 0 47 59 38 83 -3 6 -6 3 -6 -9z"/>
<path d="M900 371 c0 -5 6 -14 14 -20 16 -14 56 1 56 21 0 6 -6 6 -16 -3 -12
-10 -20 -10 -35 -1 -10 7 -19 8 -19 3z"/>
<path d="M781 309 c7 -14 14 -18 21 -11 13 13 2 32 -18 32 -12 0 -13 -4 -3
-21z"/>
<path d="M690 310 c0 -6 7 -10 15 -10 8 0 15 2 15 4 0 2 -7 6 -15 10 -8 3 -15
1 -15 -4z"/>
<path d="M935 280 c-3 -5 -2 -10 4 -10 5 0 13 5 16 10 3 6 2 10 -4 10 -5 0
-13 -4 -16 -10z"/>
<path d="M810 270 c0 -13 28 -25 38 -16 3 4 0 11 -8 16 -20 13 -30 12 -30 0z"/>
<path d="M773 206 c0 -8 8 -11 19 -8 10 2 15 8 12 13 -8 14 -31 11 -31 -5z"/>
<path d="M656 183 c-12 -12 -6 -25 9 -19 8 3 15 1 15 -4 0 -6 16 -10 35 -10
23 0 35 5 35 14 0 9 -12 14 -34 14 -19 0 -39 3 -44 6 -5 3 -12 3 -16 -1z"/>
<path d="M667 125 c-10 -7 -14 -16 -9 -19 5 -3 15 1 22 9 17 21 9 27 -13 10z"/>
<path d="M710 46 c0 -11 33 -36 40 -31 15 9 -1 35 -21 35 -10 0 -19 -2 -19 -4z"/>
<path d="M648 33 c7 -3 16 -2 19 1 4 3 -2 6 -13 5 -11 0 -14 -3 -6 -6z"/>
</g>
</svg>
